<?xml version="1.0" standalone="no"?>
<!DOCTYPE svg PUBLIC "-//W3C//DTD SVG 20010904//EN"
 "http://www.w3.org/TR/2001/REC-SVG-20010904/DTD/svg10.dtd">
<svg version="1.0" xmlns="http://www.w3.org/2000/svg"
 width="700.000000pt" height="700.000000pt" viewBox="0 0 700.000000 700.000000"
 preserveAspectRatio="xMidYMid meet">
<metadata>
Created by potrace 1.16, written by Peter Selinger 2001-2019
</metadata>
<g transform="translate(0.000000,700.000000) scale(0.100000,-0.100000)"
fill="#000000" stroke="none">
<path d="M3105 5699 c-167 -41 -330 -146 -418 -271 -178 -251 -235 -609 -141
-888 15 -42 25 -57 46 -64 19 -7 31 -6 43 4 9 8 89 114 176 237 88 123 164
223 169 223 5 0 44 -26 87 -59 212 -158 512 -309 729 -365 164 -42 419 -70
488 -52 47 12 52 44 17 119 -36 80 -125 219 -177 277 l-37 41 29 -7 c16 -3 54
-13 84 -20 129 -33 154 -11 119 101 -51 169 -152 299 -279 360 -61 28 -100 41
-233 73 -26 7 -23 9 49 47 42 22 83 50 91 63 22 33 -3 66 -61 81 -179 45 -406
29 -563 -41 -24 -11 -47 -18 -49 -15 -2 2 2 33 10 68 14 56 14 66 0 86 -18 29
-67 29 -179 2z"/>
<path d="M4872 4898 c-7 -7 -12 -19 -12 -26 0 -8 47 -63 105 -121 l105 -107
-106 -104 c-84 -85 -104 -110 -102 -130 2 -18 10 -26 27 -28 19 -3 48 20 147
119 77 77 124 131 124 144 0 24 -237 265 -261 265 -8 0 -20 -5 -27 -12z"/>
<path d="M5302 4458 c-16 -16 -15 -33 4 -52 13 -14 49 -16 233 -16 235 0 256
4 249 51 l-3 24 -235 3 c-175 2 -239 -1 -248 -10z"/>
<path d="M2468 4393 c-44 -51 -55 -122 -34 -221 27 -132 94 -220 184 -245 l42
-11 0 -49 c0 -71 28 -182 67 -267 31 -69 33 -76 17 -87 -10 -7 -144 -79 -298
-159 -155 -81 -309 -166 -343 -191 -69 -49 -142 -132 -179 -205 -31 -61 -391
-1024 -404 -1081 -24 -105 -5 -233 52 -339 32 -61 135 -165 218 -223 l43 -30
1526 -3 c1055 -2 1537 0 1563 8 43 12 181 121 227 178 79 101 121 253 102 373
-11 69 -371 1044 -418 1133 -15 28 -61 85 -103 126 -80 81 -60 69 -517 310
-117 61 -213 113 -213 115 0 2 9 19 20 38 34 58 70 178 79 265 5 46 10 84 12
86 2 1 25 10 51 20 103 38 168 161 168 315 0 80 -14 124 -42 129 -24 5 -50
-26 -42 -52 11 -32 8 -135 -5 -182 -6 -23 -21 -56 -34 -75 -25 -38 -97 -79
-139 -79 -32 0 -34 -5 -43 -119 -8 -103 -21 -153 -68 -251 -56 -120 -168 -232
-288 -290 -195 -93 -388 -93 -579 1 -201 100 -347 325 -351 544 -2 96 -8 108
-58 117 -71 12 -103 37 -139 108 -44 89 -53 175 -23 225 25 43 26 49 5 69 -20
21 -37 20 -56 -1z m1838 -1122 c312 -163 371 -204 437 -304 38 -57 398 -1000
425 -1112 9 -38 11 -81 7 -118 -14 -128 -64 -211 -184 -308 l-86 -69 -132 0
-133 0 0 268 0 267 106 64 c108 65 125 82 107 110 -18 28 -38 23 -124 -28
l-84 -51 -5 388 c-5 414 -4 407 -59 465 -56 61 20 57 -1196 57 -1098 0 -1117
0 -1156 -20 -21 -11 -51 -39 -66 -62 l-28 -42 -3 -393 c-1 -216 -4 -393 -7
-393 -2 0 -43 23 -90 52 -68 41 -90 49 -103 41 -21 -13 -27 -40 -13 -57 6 -7
56 -39 111 -72 l100 -59 0 -267 0 -268 -134 0 -134 0 -60 45 c-89 67 -157 146
-183 213 -27 68 -36 184 -20 247 6 25 95 269 197 543 204 544 229 596 329 674
43 34 445 253 642 351 l42 20 70 -65 c228 -215 537 -266 816 -134 75 35 182
116 228 172 l29 34 31 -18 c18 -11 163 -88 323 -171z m177 -455 c18 -7 41 -23
52 -36 20 -22 20 -38 23 -721 l2 -699 -1175 0 -1175 0 0 693 c0 634 1 695 17
717 18 27 37 42 68 52 11 3 501 6 1088 7 880 1 1073 -1 1100 -13z"/>
<path d="M3198 2460 l-36 -20 175 -367 c96 -203 188 -397 204 -431 16 -35 32
-62 36 -60 5 2 25 10 46 18 27 10 36 19 32 30 -26 70 -402 849 -410 849 -5 0
-27 -9 -47 -19z"/>
<path d="M2887 2207 c-97 -95 -177 -174 -177 -177 0 -3 81 -84 181 -179 l181
-174 35 35 35 35 -149 141 -148 142 148 141 148 142 -32 33 c-18 19 -35 34
-38 33 -4 0 -86 -77 -184 -172z"/>
<path d="M3713 2348 l-32 -32 147 -143 147 -143 -142 -139 c-79 -76 -143 -142
-143 -148 0 -5 13 -22 30 -38 l29 -28 148 141 c81 77 164 157 183 177 l35 37
-180 174 c-99 96 -182 174 -185 174 -3 0 -20 -14 -37 -32z"/>
<path d="M2727 4383 c-13 -13 -7 -51 29 -163 54 -170 68 -180 284 -180 209 0
223 11 280 228 l11 43 51 -3 52 -3 32 -98 c51 -158 75 -171 300 -165 195 5
197 6 252 202 23 80 29 114 21 127 -9 18 -36 19 -658 19 -356 0 -651 -3 -654
-7z"/>
<path d="M4542 4098 c-8 -8 -12 -68 -12 -204 0 -206 3 -219 52 -212 l23 3 3
199 c2 138 -1 203 -9 212 -14 17 -41 18 -57 2z"/>
<path d="M4794 4100 c-11 -4 -33 -22 -47 -40 -26 -31 -27 -35 -27 -166 l0
-134 33 -37 c29 -31 41 -37 88 -40 42 -3 61 0 87 17 49 30 62 72 62 196 0 121
-14 165 -64 195 -32 20 -95 24 -132 9z m106 -89 c5 -11 10 -65 10 -120 0 -111
-9 -131 -60 -131 -47 0 -60 30 -60 135 0 108 13 135 65 135 24 0 38 -6 45 -19z"/>
<path d="M5101 4091 c-7 -12 -11 -91 -11 -198 0 -195 6 -218 51 -211 l24 3 0
210 0 210 -27 3 c-18 2 -30 -3 -37 -17z"/>
<path d="M5343 4090 c-53 -32 -63 -64 -63 -195 0 -131 10 -163 63 -195 63 -39
150 -19 187 43 17 27 20 51 20 152 0 101 -3 125 -20 152 -37 62 -124 82 -187
43z m115 -72 c8 -8 12 -50 12 -124 0 -121 -6 -136 -55 -136 -49 0 -55 15 -55
136 0 123 5 136 55 136 17 0 36 -5 43 -12z"/>
<path d="M4871 3496 c-8 -9 -11 -74 -9 -211 3 -173 5 -199 20 -208 13 -9 22
-7 37 7 20 18 21 30 21 203 0 108 -4 192 -10 204 -12 22 -43 25 -59 5z"/>
<path d="M5091 3493 c-60 -30 -71 -62 -71 -201 0 -145 10 -170 78 -203 68 -34
141 -8 177 61 20 39 21 240 1 278 -38 72 -117 100 -185 65z m101 -80 c15 -14
18 -32 18 -124 0 -100 -2 -109 -22 -123 -32 -23 -54 -20 -78 11 -20 25 -21 38
-18 126 2 84 6 101 22 113 26 19 55 18 78 -3z"/>
<path d="M5442 3491 c-60 -38 -72 -72 -72 -199 0 -123 9 -154 56 -191 61 -48
165 -27 200 40 22 44 21 256 -2 300 -32 62 -122 87 -182 50z m104 -75 c16 -12
20 -29 22 -113 3 -88 2 -101 -18 -126 -24 -31 -46 -34 -78 -11 -20 14 -22 23
-22 121 0 85 3 110 17 125 19 22 52 23 79 4z"/>
<path d="M5736 3494 c-13 -13 -16 -45 -16 -192 0 -97 3 -187 6 -199 7 -27 29
-36 55 -23 18 10 19 23 19 208 0 198 -4 222 -36 222 -7 0 -20 -7 -28 -16z"/>

</g>
</svg>
