<svg id="visual" viewBox="0 0 900 300" width="900" height="300" xmlns="http://www.w3.org/2000/svg" xmlns:xlink="http://www.w3.org/1999/xlink" version="1.1"><path d="M0 57L21.5 61.5C43 66 86 75 128.8 73.2C171.7 71.3 214.3 58.7 257.2 53.7C300 48.7 343 51.3 385.8 55.8C428.7 60.3 471.3 66.7 514.2 73.5C557 80.3 600 87.7 642.8 85.2C685.7 82.7 728.3 70.3 771.2 63.2C814 56 857 54 878.5 53L900 52L900 0L878.5 0C857 0 814 0 771.2 0C728.3 0 685.7 0 642.8 0C600 0 557 0 514.2 0C471.3 0 428.7 0 385.8 0C343 0 300 0 257.2 0C214.3 0 171.7 0 128.8 0C86 0 43 0 21.5 0L0 0Z" fill="#0066FF" stroke-linecap="round" stroke-linejoin="miter"></path></svg>